<svg width="400" height="600" viewBox="0 0 400 600" xmlns="http://www.w3.org/2000/svg">
  <defs>
    <!-- Paper texture gradient -->
    <radialGradient id="paperGradient" cx="50%" cy="30%" r="80%">
      <stop offset="0%" style="stop-color:#fefcf7;stop-opacity:1" />
      <stop offset="40%" style="stop-color:#faf8f1;stop-opacity:1" />
      <stop offset="80%" style="stop-color:#f5f2e8;stop-opacity:1" />
      <stop offset="100%" style="stop-color:#f0ede1;stop-opacity:1" />
    </radialGradient>
    
    <!-- Subtle aging gradient -->
    <linearGradient id="agingGradient" x1="0%" y1="0%" x2="100%" y2="100%">
      <stop offset="0%" style="stop-color:#faf8f1;stop-opacity:0.3" />
      <stop offset="50%" style="stop-color:#f5f2e8;stop-opacity:0.1" />
      <stop offset="100%" style="stop-color:#ede8d8;stop-opacity:0.4" />
    </linearGradient>
    
    <!-- Paper fiber texture -->
    <filter id="paperTexture">
      <feTurbulence baseFrequency="0.9" numOctaves="4" result="noise" seed="1"/>
      <feColorMatrix in="noise" type="saturate" values="0"/>
      <feComponentTransfer>
        <feFuncA type="discrete" tableValues="0.02 0.04 0.06 0.08"/>
      </feComponentTransfer>
      <feComposite operator="over" in2="SourceGraphic"/>
    </filter>
    
    <!-- Subtle shadow for depth -->
    <filter id="bookShadow">
      <feDropShadow dx="2" dy="4" stdDeviation="3" flood-color="#d4c4a8" flood-opacity="0.3"/>
    </filter>
  </defs>
  
  <!-- Main paper background -->
  <rect width="400" height="600" fill="url(#paperGradient)" filter="url(#paperTexture)"/>
  
  <!-- Aging overlay -->
  <rect width="400" height="600" fill="url(#agingGradient)" opacity="0.6"/>
  
  <!-- Subtle horizontal lines like notebook paper -->
  <g stroke="#e8e0d1" stroke-width="0.5" opacity="0.3">
    <line x1="40" y1="80" x2="360" y2="80"/>
    <line x1="40" y1="120" x2="360" y2="120"/>
    <line x1="40" y1="160" x2="360" y2="160"/>
    <line x1="40" y1="200" x2="360" y2="200"/>
    <line x1="40" y1="240" x2="360" y2="240"/>
    <line x1="40" y1="280" x2="360" y2="280"/>
    <line x1="40" y1="320" x2="360" y2="320"/>
    <line x1="40" y1="360" x2="360" y2="360"/>
    <line x1="40" y1="400" x2="360" y2="400"/>
    <line x1="40" y1="440" x2="360" y2="440"/>
    <line x1="40" y1="480" x2="360" y2="480"/>
    <line x1="40" y1="520" x2="360" y2="520"/>
  </g>
  
  <!-- Left margin line -->
  <line x1="60" y1="40" x2="60" y2="560" stroke="#e0d4c1" stroke-width="1" opacity="0.4"/>
  
  <!-- Subtle corner wear -->
  <path d="M 0 0 Q 15 0 15 15 L 15 0 Z" fill="#ede8d8" opacity="0.6"/>
  <path d="M 385 0 Q 400 0 400 15 L 400 0 Z" fill="#ede8d8" opacity="0.6"/>
  <path d="M 0 585 Q 0 600 15 600 L 0 600 Z" fill="#ede8d8" opacity="0.6"/>
  <path d="M 385 600 Q 400 600 400 585 L 400 600 Z" fill="#ede8d8" opacity="0.6"/>
  
  <!-- Very subtle stains/aging spots -->
  <circle cx="320" cy="150" r="8" fill="#f0ede1" opacity="0.4"/>
  <circle cx="80" cy="380" r="6" fill="#ede8d8" opacity="0.3"/>
  <circle cx="280" cy="480" r="5" fill="#f0ede1" opacity="0.3"/>
  
  <!-- Book binding shadow on left -->
  <rect x="0" y="0" width="20" height="600" fill="url(#agingGradient)" opacity="0.2"/>
</svg>