<svg width="512" height="512" viewBox="0 0 512 512" fill="none" xmlns="http://www.w3.org/2000/svg">
  <!-- Background circle -->
  <circle cx="256" cy="256" r="256" fill="#4CAF50"/>
  
  <!-- Plant stem -->
  <rect x="240" y="300" width="32" height="120" fill="#2E7D32" rx="16"/>
  
  <!-- Leaves -->
  <ellipse cx="200" cy="280" rx="40" ry="25" fill="#66BB6A" transform="rotate(-30 200 280)"/>
  <ellipse cx="312" cy="280" rx="40" ry="25" fill="#66BB6A" transform="rotate(30 312 280)"/>
  <ellipse cx="180" cy="220" rx="35" ry="20" fill="#81C784" transform="rotate(-45 180 220)"/>
  <ellipse cx="332" cy="220" rx="35" ry="20" fill="#81C784" transform="rotate(45 332 220)"/>
  
  <!-- Central flower/fruit -->
  <circle cx="256" cy="200" r="30" fill="#FFC107"/>
  <circle cx="256" cy="200" r="20" fill="#FF9800"/>
  
  <!-- Soil base -->
  <ellipse cx="256" cy="450" rx="120" ry="30" fill="#8D6E63"/>
  
  <!-- AI circuit pattern overlay -->
  <g opacity="0.3">
    <circle cx="150" cy="150" r="3" fill="#E3F2FD"/>
    <circle cx="362" cy="150" r="3" fill="#E3F2FD"/>
    <circle cx="150" cy="362" r="3" fill="#E3F2FD"/>
    <circle cx="362" cy="362" r="3" fill="#E3F2FD"/>
    <line x1="150" y1="150" x2="362" y2="150" stroke="#E3F2FD" stroke-width="2"/>
    <line x1="362" y1="150" x2="362" y2="362" stroke="#E3F2FD" stroke-width="2"/>
    <line x1="362" y1="362" x2="150" y2="362" stroke="#E3F2FD" stroke-width="2"/>
    <line x1="150" y1="362" x2="150" y2="150" stroke="#E3F2FD" stroke-width="2"/>
  </g>
</svg>